<?xml version="1.0" standalone="no"?>
<!DOCTYPE svg PUBLIC "-//W3C//DTD SVG 20010904//EN"
 "http://www.w3.org/TR/2001/REC-SVG-20010904/DTD/svg10.dtd">
<svg version="1.0" xmlns="http://www.w3.org/2000/svg"
 width="448.000000pt" height="104.000000pt" viewBox="0 0 448.000000 104.000000"
 preserveAspectRatio="xMidYMid meet">

<g transform="translate(0.000000,104.000000) scale(0.100000,-0.100000)"
fill="#000000" stroke="none">
<path d="M1216 814 c-24 -24 -20 -61 9 -80 23 -15 27 -15 50 0 32 21 33 59 3
80 -28 20 -43 20 -62 0z"/>
<path d="M780 530 l0 -280 45 0 45 0 0 120 0 120 110 0 110 0 0 40 0 40 -110
0 -110 0 0 80 0 80 135 0 135 0 0 40 0 40 -180 0 -180 0 0 -280z"/>
<path d="M1800 530 l0 -280 40 0 40 0 0 120 c0 126 10 171 46 201 27 23 59 29
99 18 55 -16 65 -46 65 -204 l0 -136 43 3 42 3 0 140 c0 90 -5 153 -13 177
-33 92 -172 123 -256 57 l-26 -20 0 100 0 101 -40 0 -40 0 0 -280z"/>
<path d="M2420 740 c-20 -27 -26 -30 -80 -30 -91 0 -90 3 -90 -229 0 -140 3
-200 12 -209 17 -17 519 -17 536 0 9 9 12 69 12 208 0 230 0 230 -92 230 -48
0 -58 4 -81 30 -26 29 -30 30 -111 30 -83 0 -85 -1 -106 -30z m198 -55 c17
-22 28 -25 81 -25 l61 0 0 -175 0 -175 -227 2 -228 3 0 170 0 170 62 3 c52 2
64 6 77 27 15 23 23 25 86 25 61 0 71 -3 88 -25z"/>
<path d="M2487 615 c-51 -18 -75 -41 -88 -86 -16 -50 -3 -106 30 -140 89 -89
241 -28 241 96 0 95 -94 162 -183 130z m77 -55 c32 -12 58 -62 50 -95 -3 -14
-18 -34 -31 -45 -54 -43 -133 -9 -133 56 0 73 49 109 114 84z"/>
<path d="M1481 660 c-79 -19 -128 -96 -101 -159 16 -41 50 -58 142 -72 111
-18 146 -51 99 -93 -47 -42 -151 -24 -171 29 -8 20 -17 25 -44 25 -45 0 -51
-12 -29 -58 25 -51 88 -82 165 -82 108 0 178 49 178 124 0 72 -50 107 -170
121 -59 7 -100 27 -100 50 0 7 12 23 28 35 38 30 107 23 137 -14 16 -20 30
-26 59 -26 37 0 38 1 31 28 -13 54 -61 85 -145 95 -25 3 -60 2 -79 -3z"/>
<path d="M3438 661 c-92 -30 -140 -97 -141 -196 -1 -91 31 -150 102 -187 105
-55 227 -22 277 74 20 38 19 38 -30 38 -36 0 -46 -4 -51 -20 -8 -26 -55 -50
-95 -50 -59 0 -97 32 -115 98 l-6 22 160 0 161 0 0 29 c0 65 -47 149 -100 176
-36 18 -126 27 -162 16z m145 -101 c48 -54 41 -60 -83 -60 -121 0 -128 4 -89
54 28 36 55 47 104 41 29 -3 48 -12 68 -35z"/>
<path d="M1202 458 l3 -203 43 -3 42 -3 0 205 0 206 -45 0 -45 0 2 -202z"/>
<path d="M2891 608 c11 -29 48 -121 80 -205 l60 -152 -21 -40 c-19 -39 -23
-41 -65 -41 l-45 0 0 -40 0 -40 61 0 c53 0 64 4 88 28 15 15 37 52 49 82 11
30 56 146 100 258 l80 203 -45 -3 -46 -3 -52 -147 c-28 -81 -53 -150 -56 -153
-4 -3 -31 63 -61 147 l-54 153 -47 3 -47 3 21 -53z"/>
</g>
</svg>
